<svg id="Слой_1" data-name="Слой 1" xmlns="http://www.w3.org/2000/svg" viewBox="0 0 137.76 147.8"><defs><style>.cls-1{fill:#f93052;}.cls-2{fill:#ed1c24;}.cls-3{fill:#f7931e;}.cls-4{fill:#f15a24;}.cls-5{fill:#c1272d;}.cls-6{fill:#fff;}</style></defs><path class="cls-1" d="M120.77,70.71c0,29.41-23.41,53.25-52.3,53.25a51.42,51.42,0,0,1-33.59-12.45A53.23,53.23,0,0,1,17.15,81a53.78,53.78,0,0,1-1-10.28c0-29.41,23.41-53.25,52.3-53.25a51.58,51.58,0,0,1,28.8,8.8A53,53,0,0,1,108.68,36.7a53.59,53.59,0,0,1,12.07,34Z"/><path class="cls-2" d="M137,67.43c-4.87,33.88-33.53,59.87-68.14,59.87S5.61,101.3.73,67.43A71.79,71.79,0,0,0,0,77.68c0,38.73,30.83,70.12,68.88,70.12s68.88-31.39,68.88-70.12A71.72,71.72,0,0,0,137,67.43Z"/><path class="cls-3" d="M68.88,21.58c26.29,0,47.68,21.78,47.68,48.55s-21.39,48.55-47.68,48.55S21.19,96.89,21.19,70.12,42.58,21.58,68.88,21.58M68.88,0C30.84,0,0,31.4,0,70.12s30.84,70.12,68.88,70.12,68.88-31.4,68.88-70.12S106.91,0,68.88,0Z"/><path class="cls-4" d="M69.4,119.75c-26.78,0-50.61-10.67-65.81-27.25,9.16,27.76,34.92,47.75,65.28,47.75,29.71,0,55-19.15,64.68-46C118.3,109.84,95.22,119.75,69.4,119.75Z"/><path class="cls-5" d="M94.77,61.56,55.23,101.82A8.94,8.94,0,0,1,42.6,102l-.13-.13a9.32,9.32,0,0,1,0-13L82,48.58a8.94,8.94,0,0,1,12.63-.13l.13.13a9.34,9.34,0,0,1,0,13Z"/><path class="cls-6" d="M56.76,46.2,96.3,86.46a6.39,6.39,0,0,1,.59.68,9.33,9.33,0,0,1-.61,12.29,8.91,8.91,0,0,1-12.07.62q-.34-.28-.66-.6L44,59.18a9.32,9.32,0,0,1,0-13,8.94,8.94,0,0,1,12.64-.12l.12.12Z"/><path class="cls-6" d="M94.77,59,55.23,99.22a8.94,8.94,0,0,1-12.63.13l-.13-.13a9.32,9.32,0,0,1,0-13L82,46a8.94,8.94,0,0,1,12.63-.13l.13.13a9.34,9.34,0,0,1,0,13Z"/><circle class="cls-6" cx="86.19" cy="53.9" r="4.94"/><circle class="cls-6" cx="80.42" cy="60.49" r="2.47"/></svg>