<svg xmlns="http://www.w3.org/2000/svg" viewBox="0 0 130 137"><g data-name="Layer 2"><g data-name="Layer 1"><path fill="#f93052" d="M117.4 71.29c0 29.41-23.41 53.25-52.3 53.25a51.43 51.43 0 0 1-33.59-12.45 53.26 53.26 0 0 1-17.73-30.52 54 54 0 0 1-1-10.28C12.8 41.88 36.22 18 65.1 18a51.56 51.56 0 0 1 28.8 8.8 52.74 52.74 0 0 1 11.43 10.43 53.6 53.6 0 0 1 12.07 34z"/><path fill="#f15a24" d="M114.67 54.24l-66.31 67.51a51.73 51.73 0 01-16.85-9.66c.21-.27.43-.51.67-.76l71.32-72.61a9.58 9.58 0 011.84-1.45 53.57 53.57 0 019.33 16.97zM93.9 26.84c-.18.21-.35.41-.55.61L22 100.06c-.2.2-.39.38-.6.56a53.36 53.36 0 01-7.66-19L75.2 19a51.37 51.37 0 0118.7 7.84z"/><path fill="#ed1c24" d="M129.31 62.5a65 65 0 0 1-128.62 0A66.08 66.08 0 0 0 0 72a65 65 0 0 0 130 0 66.08 66.08 0 0 0-.69-9.5z"/><path fill="#f7931e" d="M65 20a45 45 0 1 1-45 45 45.05 45.05 0 0 1 45-45m0-20a65 65 0 1 0 65 65A65 65 0 0 0 65 0z"/><path fill="#f15a24" d="M65.5 111c-25.27 0-47.76-9.89-62.11-25.26A65 65 0 0 0 126 87.37C111.64 101.81 89.86 111 65.5 111z"/><rect width="27.51" height="9.85" x="39.77" y="59.72" fill="#c1272d" rx="4.92" ry="4.92" transform="rotate(-1.36 53.584 64.678)"/><path fill="#c1272d" d="M36.79 69.82l6.84 3.74a5.55 5.55 0 0 0 8.21-5l-.18-7.79a5.55 5.55 0 0 0-8.44-4.61l-6.65 4.06a5.55 5.55 0 0 0 .22 9.6z"/><rect width="27.51" height="9.85" x="38.87" y="58.58" fill="#fff" rx="4.92" ry="4.92" transform="rotate(-1.36 52.335 63.4)"/><path fill="#fff" d="M36.37 68.94l5.88 3.21a5.86 5.86 0 0 0 8.67-5.29l-.16-6.7a5.86 5.86 0 0 0-8.91-4.87l-5.73 3.49a5.86 5.86 0 0 0 .25 10.16z"/><rect width="9.02" height="17.9" x="56.8" y="37.09" fill="#c1272d" rx="4.51" ry="4.51" transform="rotate(-179.75 61.316 46.036)"/><rect width="9.02" height="17.9" x="56.73" y="73.1" fill="#c1272d" rx="4.51" ry="4.51" transform="rotate(-179.75 61.244 82.052)"/><rect width="9.02" height="17.05" x="54.82" y="72.59" fill="#fff" rx="4.51" ry="4.51" transform="rotate(-179.75 59.332 81.11)"/><rect width="9.02" height="34.65" x="69.33" y="25.69" fill="#c1272d" rx="4.51" ry="4.51" transform="rotate(-89.75 73.85 43.018)"/><rect width="9.02" height="34.65" x="69.46" y="70.02" fill="#c1272d" rx="4.51" ry="4.51" transform="rotate(-89.75 73.977 87.345)"/><rect width="9.02" height="17.06" x="54.01" y="37.07" fill="#fff" rx="4.51" ry="4.51" transform="rotate(-179.75 58.53 45.603)"/><rect width="9.02" height="50.15" x="83.56" y="41.17" fill="#c1272d" rx="4.51" ry="4.51" transform="rotate(-179.75 88.07 66.243)"/><rect width="9.02" height="35.64" x="68.01" y="23.38" fill="#fff" rx="4.51" ry="4.51" transform="rotate(-89.75 72.523 41.197)"/><rect width="9.02" height="35.64" x="68.14" y="67.7" fill="#fff" rx="4.51" ry="4.51" transform="rotate(-89.75 72.65 85.524)"/><rect width="9.02" height="52.56" x="81.65" y="37.34" fill="#fff" rx="4.51" ry="4.51" transform="rotate(-179.75 86.164 63.617)"/></g></g></svg>