<svg xmlns="http://www.w3.org/2000/svg" viewBox="0 0 130 137"><g data-name="Layer 2"><g data-name="Layer 1"><path fill="#f93052" d="M117.24 71.29c0 29.41-23.41 53.25-52.3 53.25a51.43 51.43 0 0 1-33.59-12.45 53.26 53.26 0 0 1-17.73-30.52 54 54 0 0 1-1-10.28C12.64 41.88 36.05 18 64.94 18a51.56 51.56 0 0 1 28.8 8.8 52.74 52.74 0 0 1 11.43 10.43 53.6 53.6 0 0 1 12.07 34z"/><path fill="#f15a24" d="M114.5 54.24l-66.31 67.51a51.73 51.73 0 01-16.85-9.66c.21-.27.43-.51.67-.76l71.31-72.61a9.58 9.58 0 011.84-1.45 53.57 53.57 0 019.34 16.97zM93.74 26.84c-.18.21-.35.41-.55.61l-71.32 72.61c-.2.2-.39.38-.6.56a53.36 53.36 0 01-7.66-19L75 19a51.37 51.37 0 0118.74 7.84z"/><path fill="#ed1c24" d="M129.31 62.5a65 65 0 0 1-128.62 0A66.08 66.08 0 0 0 0 72a65 65 0 0 0 130 0 66.08 66.08 0 0 0-.69-9.5z"/><path fill="#f7931e" d="M65 20a45 45 0 1 1-45 45 45.05 45.05 0 0 1 45-45m0-20a65 65 0 1 0 65 65A65 65 0 0 0 65 0z"/><path fill="#f15a24" d="M65.5 111c-25.27 0-47.76-9.89-62.11-25.26A65 65 0 0 0 126 87.37C111.64 101.81 89.86 111 65.5 111z"/><path fill="#c1272d" d="M66.22 37.65a24.87 24.87 0 0 1 9.63 2 18.81 18.81 0 0 1 7.94 5.94 12.71 12.71 0 0 1 2.8 7.89 10.36 10.36 0 0 1-4 8.28 42.82 42.82 0 0 1-6.24 3.44 11.61 11.61 0 0 0-2.81 1.8A7.66 7.66 0 0 0 72 69.35a11.08 11.08 0 0 1-2.55 4 6.48 6.48 0 0 1-3.78.83 5.45 5.45 0 0 1-4-1.49 5.5 5.5 0 0 1-1.49-4.07 12.47 12.47 0 0 1 1.15-5q.3-.64 3.27-5.09a14.31 14.31 0 0 0 2.76-7.81 5.06 5.06 0 0 0-.83-3 2.49 2.49 0 0 0-2.1-1.17 2.08 2.08 0 0 0-1.87.83 7.68 7.68 0 0 0-.81 3.12 9.94 9.94 0 0 1-2.84 6.58 8.82 8.82 0 0 1-6.32 2.29 6.34 6.34 0 0 1-4.41-1.53 5.7 5.7 0 0 1-2-4.46 13.45 13.45 0 0 1 2.82-8 17 17 0 0 1 7.24-5.75 25.23 25.23 0 0 1 9.98-1.98zm-.93 40.65a8.43 8.43 0 0 1 6.32 2.76 9.2 9.2 0 1 1-15.74 6.41 8.55 8.55 0 0 1 2.5-6.24 9.19 9.19 0 0 1 6.92-2.92z"/><path fill="#fff" d="M63.22 34.65a24.87 24.87 0 0 1 9.63 2 18.81 18.81 0 0 1 7.94 5.94 12.71 12.71 0 0 1 2.8 7.89 10.36 10.36 0 0 1-4 8.28 42.82 42.82 0 0 1-6.24 3.44 11.61 11.61 0 0 0-2.81 1.8A7.66 7.66 0 0 0 69 66.35a11.08 11.08 0 0 1-2.55 4 6.48 6.48 0 0 1-3.78.83 5.45 5.45 0 0 1-4-1.49 5.5 5.5 0 0 1-1.49-4.07 12.47 12.47 0 0 1 1.15-5q.3-.64 3.27-5.09a14.31 14.31 0 0 0 2.76-7.81 5.06 5.06 0 0 0-.83-3 2.49 2.49 0 0 0-2.1-1.17 2.08 2.08 0 0 0-1.87.83 7.68 7.68 0 0 0-.81 3.12 9.94 9.94 0 0 1-2.84 6.58 8.82 8.82 0 0 1-6.32 2.29 6.34 6.34 0 0 1-4.41-1.53 5.7 5.7 0 0 1-2-4.46 13.45 13.45 0 0 1 2.82-8 17 17 0 0 1 7.24-5.75 25.23 25.23 0 0 1 9.98-1.98zm-.93 40.65a8.43 8.43 0 0 1 6.32 2.76 9.2 9.2 0 1 1-15.74 6.41 8.55 8.55 0 0 1 2.5-6.24 9.19 9.19 0 0 1 6.92-2.92z"/></g></g></svg>