<svg xmlns="http://www.w3.org/2000/svg" viewBox="0 0 130 137"><g data-name="Layer 2"><g data-name="Layer 1"><path fill="#f93052" d="M117.07 67.5c0 29.41-23.41 53.25-52.3 53.25a51.43 51.43 0 0 1-33.59-12.45 53.26 53.26 0 0 1-17.73-30.52 54 54 0 0 1-1-10.28c0-29.41 23.41-53.25 52.3-53.25A51.56 51.56 0 0 1 93.57 23 52.74 52.74 0 0 1 105 33.48a53.6 53.6 0 0 1 12.07 34z"/><path fill="#f15a24" d="M114.34 50.45L48 118a51.73 51.73 0 01-16.85-9.66c.21-.27.43-.51.67-.76l71.31-72.61a9.58 9.58 0 011.87-1.49 53.57 53.57 0 019.34 16.97zM93.57 23c-.18.21-.35.41-.55.61L21.71 96.27c-.2.2-.39.38-.6.56a53.36 53.36 0 01-7.66-19l61.42-62.58A51.37 51.37 0 0193.57 23z"/><path fill="#ed1c24" d="M129.31 62.5a65 65 0 0 1-128.62 0A66.08 66.08 0 0 0 0 72a65 65 0 0 0 130 0 66.08 66.08 0 0 0-.69-9.5z"/><path fill="#f7931e" d="M65 20a45 45 0 1 1-45 45 45.05 45.05 0 0 1 45-45m0-20a65 65 0 1 0 65 65A65 65 0 0 0 65 0z"/><path fill="#f15a24" d="M65.5 111c-25.27 0-47.76-9.89-62.11-25.26A65 65 0 0 0 126 87.37C111.64 101.81 89.86 111 65.5 111z"/><rect width="6.42" height="24.11" x="85.31" y="33.02" fill="#ed1c24" rx="3" ry="3"/><path fill="#ed1c24" d="M60.06 31.18L39.43 53.12A7.6 7.6 0 0 0 45 65.92h41.22a7.6 7.6 0 0 0 5.53-12.8L71.13 31.18a7.6 7.6 0 0 0-11.07 0z"/><rect width="1.07" height="19.28" x="77.35" y="65.45" fill="#ed1c24" rx=".5" ry=".5"/><rect width=".88" height="21.41" x="78.43" y="64.17" fill="#ed1c24" rx=".44" ry=".44" transform="rotate(90 78.87 74.88)"/><path fill="#ed1c24" d="M78.87 54.07H51.62c-6.42 0-11.68 4.73-11.68 10.51v23.66c0 5.78 5.25 10.51 11.68 10.51h27.25c6.42 0 11.68-4.73 11.68-10.51V64.58c0-5.78-5.26-10.51-11.68-10.51zm9.73 27.62a2.3 2.3 0 0 1-2.4 2.16H71.54a2.3 2.3 0 0 1-2.4-2.16V68.5a2.3 2.3 0 0 1 2.4-2.16H86.2a2.3 2.3 0 0 1 2.4 2.16z"/><rect width="6.42" height="24.11" x="84.34" y="32.14" fill="#fff" rx="3" ry="3"/><path fill="#fff" d="M59.08 30.31L38.46 52.24A7.6 7.6 0 0 0 44 65h41.24a7.6 7.6 0 0 0 5.53-12.8L70.15 30.31a7.6 7.6 0 0 0-11.07 0z"/><rect width="1.07" height="19.28" x="76.38" y="64.58" fill="#efdcdd" rx=".5" ry=".5"/><rect width=".88" height="21.41" x="77.46" y="63.3" fill="#efdcdd" rx=".44" ry=".44" transform="rotate(90 77.9 74)"/><path fill="#fff" d="M77.9 53.19H50.65C44.23 53.19 39 57.93 39 63.71v23.65c0 5.78 5.25 10.51 11.68 10.51H77.9c6.42 0 11.68-4.73 11.68-10.51V63.71c-.01-5.78-5.26-10.52-11.68-10.52zm8.35 27.62A2.2 2.2 0 0 1 84 83H70.4a2.2 2.2 0 0 1-2.23-2.16V67.62a2.2 2.2 0 0 1 2.23-2.16H84a2.2 2.2 0 0 1 2.23 2.16z"/><circle cx="50.25" cy="54.75" r="6" style="mix-blend-mode:soft-light" fill="#fff"/><circle cx="59.25" cy="46.75" r="3" style="mix-blend-mode:soft-light" fill="#fff"/></g></g></svg>