<svg id="Слой_1" data-name="Слой 1" xmlns="http://www.w3.org/2000/svg" viewBox="0 0 130 137"><defs><style>.cls-1{fill:#6c15f9;}.cls-2{fill:#9d59ed;}.cls-3{fill:#f71554;}.cls-4{fill:#f114e6;}.cls-5{fill:#cfa3ff;}</style></defs><path class="cls-1" d="M121.25,65.75a55.75,55.75,0,1,1-2.93-17.93A55.73,55.73,0,0,1,121.25,65.75Z"/><path class="cls-2" d="M129.31,62.5A65,65,0,0,1,.69,62.5,65.69,65.69,0,0,0,0,72a65,65,0,0,0,130,0A65.69,65.69,0,0,0,129.31,62.5Z"/><path class="cls-3" d="M65,20A45,45,0,1,1,20,65,45,45,0,0,1,65,20M65,0a65,65,0,1,0,65,65A65,65,0,0,0,65,0Z"/><path class="cls-4" d="M65.5,111c-25.27,0-47.76-9.89-62.11-25.26A65,65,0,0,0,126,87.37C111.64,101.81,89.86,111,65.5,111Z"/><path class="cls-2" d="M74.9,60v41a4.62,4.62,0,0,1-.05.65c-.43,3.32-4.07,5.95-8.46,5.95s-8-2.62-8.46-5.95a4.62,4.62,0,0,1,0-.65V60c0-3.64,3.83-6.62,8.51-6.62a9.82,9.82,0,0,1,6,1.95A6,6,0,0,1,74.9,60Z"/><circle class="cls-2" cx="66" cy="40.35" r="9"/><path class="cls-5" d="M72.9,58V99a4.62,4.62,0,0,1-.05.65c-.43,3.32-4.07,5.95-8.46,5.95s-8-2.62-8.46-5.95a4.62,4.62,0,0,1,0-.65V58c0-3.64,3.83-6.62,8.51-6.62a9.82,9.82,0,0,1,6,1.95A6,6,0,0,1,72.9,58Z"/><circle class="cls-5" cx="64" cy="38.35" r="9"/><circle class="cls-5" cx="66.42" cy="35.73" r="3.18"/><circle class="cls-5" cx="62.71" cy="39.96" r="1.59"/></svg>