<svg id="Слой_1" data-name="Слой 1" xmlns="http://www.w3.org/2000/svg" viewBox="0 0 130 137"><defs><style>.cls-1{fill:#f93052;}.cls-2{fill:#ed1c24;}.cls-3{fill:#f7931e;}.cls-4{fill:#f15a24;}.cls-5{fill:#c1272d;}.cls-6{fill:#fff;}</style></defs><path class="cls-1" d="M117.24,71.29c0,29.41-23.41,53.25-52.3,53.25a51.42,51.42,0,0,1-33.59-12.45,53.93,53.93,0,0,1-18.73-40.8C12.64,41.88,36.05,18,64.94,18a51.58,51.58,0,0,1,28.8,8.8,53,53,0,0,1,11.43,10.43,53.59,53.59,0,0,1,12.07,34Z"/><path class="cls-2" d="M129.31,62.5A65,65,0,0,1,.69,62.5,65.69,65.69,0,0,0,0,72a65,65,0,0,0,130,0A65.69,65.69,0,0,0,129.31,62.5Z"/><path class="cls-3" d="M65,20A45,45,0,1,1,20,65,45,45,0,0,1,65,20M65,0a65,65,0,1,0,65,65A65,65,0,0,0,65,0Z"/><path class="cls-4" d="M65.5,111c-25.27,0-47.76-9.89-62.11-25.26A65,65,0,0,0,126,87.37C111.64,101.81,89.86,111,65.5,111Z"/><rect class="cls-5" x="35.78" y="60.75" width="60.63" height="30.25" rx="6.5"/><rect class="cls-5" x="52.28" y="38" width="30.25" height="30.25" rx="6.5"/><rect class="cls-6" x="33.72" y="58.69" width="30.25" height="30.25" rx="6.5"/><rect class="cls-6" x="51.41" y="58.69" width="42.8" height="30.25" rx="6.5"/><rect class="cls-6" x="48.84" y="36.69" width="30.25" height="30.25" rx="6.5"/><path class="cls-2" d="M60.79,54.41a3.49,3.49,0,0,1,.74.08H62c.67,0,1-.5,1.1-1.5,0-.57.08-2.18.08-4.85a1.17,1.17,0,0,0-.25-.84,1.31,1.31,0,0,0-.9-.24h-.84a.87.87,0,0,1-.62-.21.65.65,0,0,1-.24-.54,1,1,0,0,1,.36-.71,3.05,3.05,0,0,1,1-.62,17.25,17.25,0,0,1,6.76-1.35,3.29,3.29,0,0,1,1.42.23.77.77,0,0,1,.44.74.64.64,0,0,1-.15.46,1.91,1.91,0,0,1-.58.35c-.46.2-.73.45-.8.74a29.83,29.83,0,0,0-.16,3.41c.06,2,.09,3.07.1,3.22s0,.4.09.6a1.2,1.2,0,0,0,.51.82,2.92,2.92,0,0,0,1.3.27c.71,0,1.06.29,1.06.86s-.5,1-1.49,1.12a24.46,24.46,0,0,1-4.27.37,20.59,20.59,0,0,1-2.72-.17,12.45,12.45,0,0,1-2.49-.55c-.57-.21-.86-.52-.86-.94a.76.76,0,0,1,.28-.58A1,1,0,0,1,60.79,54.41Z"/><path class="cls-4" d="M59.79,53.41a3.49,3.49,0,0,1,.74.08H61c.67,0,1-.5,1.1-1.5,0-.57.08-2.18.08-4.85a1.17,1.17,0,0,0-.25-.84,1.31,1.31,0,0,0-.9-.24h-.84a.87.87,0,0,1-.62-.21.65.65,0,0,1-.24-.54,1,1,0,0,1,.36-.71,3.05,3.05,0,0,1,1-.62,17.25,17.25,0,0,1,6.76-1.35,3.29,3.29,0,0,1,1.42.23.77.77,0,0,1,.44.74.64.64,0,0,1-.15.46,1.91,1.91,0,0,1-.58.35c-.46.2-.73.45-.8.74a29.83,29.83,0,0,0-.16,3.41c.06,2,.09,3.07.1,3.22s0,.4.09.6a1.2,1.2,0,0,0,.51.82,2.92,2.92,0,0,0,1.3.27c.71,0,1.06.29,1.06.86s-.5,1-1.49,1.12a24.46,24.46,0,0,1-4.27.37,20.59,20.59,0,0,1-2.72-.17,12.45,12.45,0,0,1-2.49-.55c-.57-.21-.86-.52-.86-.94a.76.76,0,0,1,.28-.58A1,1,0,0,1,59.79,53.41Z"/><path class="cls-2" d="M81.82,67.72a8.81,8.81,0,0,1,3.85.8,2.61,2.61,0,0,1,1,.9,2.19,2.19,0,0,1,.39,1.24,2.86,2.86,0,0,1-1.27,2.22c-.24.19-.36.35-.36.46s.21.37.64.45c2,.37,3,1.5,3,3.37a4.91,4.91,0,0,1-1.24,3.22,6.87,6.87,0,0,1-3.45,2.07,13.23,13.23,0,0,1-3.6.47,10.9,10.9,0,0,1-4-.64c-.67-.27-1-.66-1-1.18a1,1,0,0,1,.35-.81A1.19,1.19,0,0,1,77,80a11.28,11.28,0,0,1,1.52.28,5,5,0,0,0,1.16.1,3.43,3.43,0,0,0,2.15-.62,1.9,1.9,0,0,0,.84-1.52,1.58,1.58,0,0,0-.65-1.31,2.57,2.57,0,0,0-1.67-.51,3.71,3.71,0,0,0-1.15.15,1.64,1.64,0,0,1-.44.09c-.19,0-.39-.2-.6-.59a2.48,2.48,0,0,1-.31-1.16A.41.41,0,0,1,78,74.5a7.45,7.45,0,0,1,.93-.36,3.56,3.56,0,0,0,1.36-.9,1.56,1.56,0,0,0,.49-1.09A1.47,1.47,0,0,0,80.31,71a1.71,1.71,0,0,0-1.21-.47,2.2,2.2,0,0,0-.72.1,8.57,8.57,0,0,0-1.1.53.81.81,0,0,1-.37.12c-.19,0-.36-.13-.53-.39a1.53,1.53,0,0,1-.25-.83q0-.76,1.35-1.44a8.94,8.94,0,0,1,2-.69A10.82,10.82,0,0,1,81.82,67.72Z"/><path class="cls-4" d="M80.82,66.72a8.81,8.81,0,0,1,3.85.8,2.61,2.61,0,0,1,1,.9,2.19,2.19,0,0,1,.39,1.24,2.86,2.86,0,0,1-1.27,2.22c-.24.19-.36.35-.36.46s.21.37.64.45c2,.37,3,1.5,3,3.37a4.91,4.91,0,0,1-1.24,3.22,6.87,6.87,0,0,1-3.45,2.07,13.23,13.23,0,0,1-3.6.47,10.9,10.9,0,0,1-4-.64c-.67-.27-1-.66-1-1.18a1,1,0,0,1,.35-.81A1.19,1.19,0,0,1,76,79a11.28,11.28,0,0,1,1.52.28,5,5,0,0,0,1.16.1,3.43,3.43,0,0,0,2.15-.62,1.9,1.9,0,0,0,.84-1.52,1.58,1.58,0,0,0-.65-1.31,2.57,2.57,0,0,0-1.67-.51,3.71,3.71,0,0,0-1.15.15,1.64,1.64,0,0,1-.44.09c-.19,0-.39-.2-.6-.59a2.48,2.48,0,0,1-.31-1.16A.41.41,0,0,1,77,73.5a7.45,7.45,0,0,1,.93-.36,3.56,3.56,0,0,0,1.36-.9,1.56,1.56,0,0,0,.49-1.09A1.47,1.47,0,0,0,79.31,70a1.71,1.71,0,0,0-1.21-.47,2.2,2.2,0,0,0-.72.1,8.57,8.57,0,0,0-1.1.53.81.81,0,0,1-.37.12c-.19,0-.36-.13-.53-.39a1.53,1.53,0,0,1-.25-.83q0-.76,1.35-1.44a8.94,8.94,0,0,1,2-.69A10.82,10.82,0,0,1,80.82,66.72Z"/><path class="cls-2" d="M52.78,80.6H45.13c-.67,0-1-.19-1-.57a.83.83,0,0,1,.21-.54q.21-.26,1.38-1.35a18.29,18.29,0,0,0,3.21-3.81,3.17,3.17,0,0,0,.54-1.55,1.22,1.22,0,0,0-.33-.89,1.14,1.14,0,0,0-.88-.33,1.66,1.66,0,0,0-.79.14,9.68,9.68,0,0,0-1.19.92,1,1,0,0,1-.65.2,1.45,1.45,0,0,1-1-.41,1.18,1.18,0,0,1-.44-.89,1.81,1.81,0,0,1,.4-1,5.34,5.34,0,0,1,1.07-1A9,9,0,0,1,51,67.78a7.31,7.31,0,0,1,3.72.86,3.08,3.08,0,0,1,1.47,2.58c0,1.33-.91,2.76-2.72,4.27-.67.54-1,.94-1,1.21a.64.64,0,0,0,.29.53,1.15,1.15,0,0,0,.71.22,2.44,2.44,0,0,0,1.76-.76,3.8,3.8,0,0,1,.52-.46.62.62,0,0,1,.35-.08c.67,0,1,.56,1,1.69a4.8,4.8,0,0,1-.32,1.71A4.73,4.73,0,0,1,56,81a1.68,1.68,0,0,1-1.28.67.71.71,0,0,1-.45-.12,1.61,1.61,0,0,1-.38-.44,1,1,0,0,0-.4-.4A1.92,1.92,0,0,0,52.78,80.6Z"/><path class="cls-4" d="M51.78,79.6H44.13c-.67,0-1-.19-1-.57a.83.83,0,0,1,.21-.54q.21-.26,1.38-1.35a18.29,18.29,0,0,0,3.21-3.81,3.17,3.17,0,0,0,.54-1.55,1.22,1.22,0,0,0-.33-.89,1.14,1.14,0,0,0-.88-.33,1.66,1.66,0,0,0-.79.14,9.68,9.68,0,0,0-1.19.92,1,1,0,0,1-.65.2,1.45,1.45,0,0,1-1-.41,1.18,1.18,0,0,1-.44-.89,1.81,1.81,0,0,1,.4-1,5.34,5.34,0,0,1,1.07-1A9,9,0,0,1,50,66.78a7.31,7.31,0,0,1,3.72.86,3.08,3.08,0,0,1,1.47,2.58c0,1.33-.91,2.76-2.72,4.27-.67.54-1,.94-1,1.21a.64.64,0,0,0,.29.53,1.15,1.15,0,0,0,.71.22,2.44,2.44,0,0,0,1.76-.76,3.8,3.8,0,0,1,.52-.46.62.62,0,0,1,.35-.08c.67,0,1,.56,1,1.69a4.8,4.8,0,0,1-.32,1.71A4.73,4.73,0,0,1,55,80a1.68,1.68,0,0,1-1.28.67.71.71,0,0,1-.45-.12,1.61,1.61,0,0,1-.38-.44,1,1,0,0,0-.4-.4A1.92,1.92,0,0,0,51.78,79.6Z"/></svg>