<svg id="Слой_1" data-name="Слой 1" xmlns="http://www.w3.org/2000/svg" viewBox="0 0 130 137"><defs><style>.cls-1{fill:#af5bf9;}.cls-2{fill:#b047ed;}.cls-3{fill:#f74b4f;}.cls-4{fill:#f150c0;}.cls-5{fill:#9448c1;}.cls-6{fill:#fff;}</style></defs><path class="cls-1" d="M117.44,68.6a53.53,53.53,0,1,1-2.81-17.21A53.51,53.51,0,0,1,117.44,68.6Z"/><path class="cls-2" d="M129.31,62.5A65,65,0,0,1,.69,62.5,65.69,65.69,0,0,0,0,72a65,65,0,0,0,130,0A65.69,65.69,0,0,0,129.31,62.5Z"/><path class="cls-3" d="M65,20A45,45,0,1,1,20,65,45,45,0,0,1,65,20M65,0a65,65,0,1,0,65,65A65,65,0,0,0,65,0Z"/><path class="cls-4" d="M65.5,111c-25.27,0-47.76-9.89-62.11-25.26A65,65,0,0,0,126,87.37C111.64,101.81,89.86,111,65.5,111Z"/><path class="cls-5" d="M44.4,46.54h0a6.16,6.16,0,0,1,6.16,6.16h0a6.16,6.16,0,0,1-6.16,6.16h0a6.16,6.16,0,0,1-6.16-6.16h0A6.16,6.16,0,0,1,44.4,46.54Z"/><path class="cls-5" d="M94,53.83h0a4.88,4.88,0,0,1-5,4.75L61.24,57.8a4.88,4.88,0,0,1-4.75-5h0a4.88,4.88,0,0,1,5-4.74l27.74.77A4.88,4.88,0,0,1,94,53.83Z"/><path class="cls-6" d="M43.13,45.14h0a6.16,6.16,0,0,1,6.16,6.16h0a6.16,6.16,0,0,1-6.16,6.16h0A6.16,6.16,0,0,1,37,51.3h0A6.16,6.16,0,0,1,43.13,45.14Z"/><path class="cls-5" d="M44.4,63.54h0a6.16,6.16,0,0,1,6.16,6.16h0a6.16,6.16,0,0,1-6.16,6.16h0a6.16,6.16,0,0,1-6.16-6.16h0A6.16,6.16,0,0,1,44.4,63.54Z"/><path class="cls-6" d="M43.13,62.14h0a6.16,6.16,0,0,1,6.16,6.16h0a6.16,6.16,0,0,1-6.16,6.16h0A6.16,6.16,0,0,1,37,68.3h0A6.16,6.16,0,0,1,43.13,62.14Z"/><path class="cls-5" d="M44.4,80.54h0a6.16,6.16,0,0,1,6.16,6.16h0a6.16,6.16,0,0,1-6.16,6.16h0a6.16,6.16,0,0,1-6.16-6.16h0A6.16,6.16,0,0,1,44.4,80.54Z"/><path class="cls-6" d="M43.13,79.14h0a6.16,6.16,0,0,1,6.16,6.16h0a6.16,6.16,0,0,1-6.16,6.16h0A6.16,6.16,0,0,1,37,85.3h0A6.16,6.16,0,0,1,43.13,79.14Z"/><path class="cls-6" d="M92.93,51.84h0a4.9,4.9,0,0,1-5,4.75l-28.81-.81a4.88,4.88,0,0,1-4.75-5h0a4.89,4.89,0,0,1,5-4.74l28.81.8A4.9,4.9,0,0,1,92.93,51.84Z"/><path class="cls-5" d="M94,70.83h0a4.89,4.89,0,0,1-5,4.74L61.25,74.8a4.91,4.91,0,0,1-4.76-5h0a4.9,4.9,0,0,1,5-4.75l27.77.78A4.88,4.88,0,0,1,94,70.83Z"/><path class="cls-6" d="M92.92,68.85h0a4.88,4.88,0,0,1-5,4.74l-28.81-.8a4.88,4.88,0,0,1-4.75-5h0a4.88,4.88,0,0,1,5-4.75l28.81.81A4.88,4.88,0,0,1,92.92,68.85Z"/><path class="cls-5" d="M94,87.83h0a4.9,4.9,0,0,1-5,4.75L61.24,91.8a4.88,4.88,0,0,1-4.75-5h0a4.89,4.89,0,0,1,5-4.74l27.77.77A4.91,4.91,0,0,1,94,87.83Z"/><path class="cls-6" d="M92.92,85.84h0a4.9,4.9,0,0,1-5,4.75l-28.81-.81a4.89,4.89,0,0,1-4.76-5h0a4.89,4.89,0,0,1,5-4.75l28.81.8A4.9,4.9,0,0,1,92.92,85.84Z"/></svg>