<svg id="Слой_1" data-name="Слой 1" xmlns="http://www.w3.org/2000/svg" viewBox="0 0 130 137"><defs><style>.cls-1{fill:#2a898e;}.cls-2{fill:#0a777d;}.cls-3{fill:#2bfead;}.cls-4{fill:#42969b;}.cls-5{fill:#00e422;}</style></defs><path class="cls-1" d="M117.82,64.75c0,29.41-23.41,53.25-52.3,53.25a51.42,51.42,0,0,1-33.59-12.45A54,54,0,0,1,13.2,64.72c0-29.41,23.41-53.25,52.3-53.25a51.58,51.58,0,0,1,28.8,8.8A53,53,0,0,1,105.73,30.7a53.59,53.59,0,0,1,12.07,34Z"/><path class="cls-2" d="M129.31,62.5A65,65,0,0,1,.69,62.5,65.69,65.69,0,0,0,0,72a65,65,0,0,0,130,0A65.69,65.69,0,0,0,129.31,62.5Z"/><path class="cls-3" d="M65,20A45,45,0,1,1,20,65,45,45,0,0,1,65,20M65,0a65,65,0,1,0,65,65A65,65,0,0,0,65,0Z"/><path class="cls-4" d="M65.5,111c-25.27,0-47.76-9.89-62.11-25.26A65,65,0,0,0,126,87.37C111.64,101.81,89.86,111,65.5,111Z"/><path class="cls-2" d="M100,57,60.15,34A11.44,11.44,0,0,0,43,43.9v46a11.44,11.44,0,0,0,17.15,9.9l39.8-23A11.44,11.44,0,0,0,100,57Z"/><path class="cls-5" d="M98.93,57.46a11.7,11.7,0,0,0-3.16-2.57L58.15,33.19A11.44,11.44,0,0,0,41,43.09V86.74a11.44,11.44,0,0,0,17.15,9.9L96,74.82A11.45,11.45,0,0,0,98.93,57.46Z"/><circle class="cls-5" cx="54" cy="42" r="6"/><circle class="cls-5" cx="63" cy="47" r="3"/></svg>