<svg id="Слой_1" data-name="Слой 1" xmlns="http://www.w3.org/2000/svg" viewBox="0 0 130 137"><defs><style>.cls-1{fill:#f93052;}.cls-2{fill:#ed1c24;}.cls-3{fill:#f7931e;}.cls-4{fill:#f15a24;}.cls-5{fill:#fff;}</style></defs><path class="cls-1" d="M116.1,68.67c0,29.41-23.41,53.25-52.3,53.25a51.42,51.42,0,0,1-33.59-12.45,53.93,53.93,0,0,1-18.73-40.8c0-29.41,23.41-53.25,52.3-53.25a51.58,51.58,0,0,1,28.8,8.8A52.69,52.69,0,0,1,104,34.65a53.59,53.59,0,0,1,12.07,34Z"/><path class="cls-2" d="M129.31,62.5A65,65,0,0,1,.69,62.5,65.69,65.69,0,0,0,0,72a65,65,0,0,0,130,0A65.69,65.69,0,0,0,129.31,62.5Z"/><path class="cls-3" d="M65,20A45,45,0,1,1,20,65,45,45,0,0,1,65,20M65,0a65,65,0,1,0,65,65A65,65,0,0,0,65,0Z"/><path class="cls-4" d="M65.5,111c-25.27,0-47.76-9.89-62.11-25.26A65,65,0,0,0,126,87.37C111.64,101.81,89.86,111,65.5,111Z"/><path class="cls-5" d="M101.42,77.71,91.28,60.94a1.36,1.36,0,0,0-2.38,0Q83.8,69.3,78.69,77.67a1.27,1.27,0,0,0,.1,1.58,1.22,1.22,0,0,0,1.08.59h5.38a22.21,22.21,0,0,1-37.78.9c-3-4.56-10.16-.21-7.11,4.4C47,95.2,57.94,101,69.62,99.54c11.24-1.36,20.31-9,24.82-19.66h5.78A1.46,1.46,0,0,0,101.42,77.71Z"/><path class="cls-5" d="M92.8,44.93c-6.66-10-17.59-15.8-29.27-14.39-11.35,1.37-20.49,9.18-24.94,20h-7.2A1.46,1.46,0,0,0,30.2,52.7L40.33,69.46a1.36,1.36,0,0,0,2.38,0q5.1-8.36,10.22-16.71a1.3,1.3,0,0,0-.1-1.58,1.21,1.21,0,0,0-1.08-.59h-4a22.2,22.2,0,0,1,38-1.22C88.7,53.89,95.85,49.54,92.8,44.93Z"/></svg>