<svg xmlns="http://www.w3.org/2000/svg" viewBox="0 0 130 137"><g data-name="Layer 2"><g data-name="Layer 1"><path fill="#f93052" d="M117.44 68.6a53.52 53.52 0 1 1-2.81-17.21 53.76 53.76 0 0 1 2.81 17.21z"/><path fill="#f15a24" d="M114.62 51.38l-68.16 68.17a53.43 53.43 0 01-17.32-9.76c.22-.27.44-.52.69-.77l73.32-73.32a9.82 9.82 0 011.85-1.45 53.82 53.82 0 019.62 17.13zM93.28 23.71c-.18.21-.36.41-.57.61L19.4 97.64c-.2.2-.4.38-.61.57A53.34 53.34 0 0110.91 79L74 15.84a53.34 53.34 0 0119.28 7.87z"/><path fill="#ed1c24" d="M129.31 62.5a65 65 0 0 1-128.62 0A66.08 66.08 0 0 0 0 72a65 65 0 0 0 130 0 66.08 66.08 0 0 0-.69-9.5z"/><path fill="#f7931e" d="M65 20a45 45 0 1 1-45 45 45.05 45.05 0 0 1 45-45m0-20a65 65 0 1 0 65 65A65 65 0 0 0 65 0z"/><path fill="#f15a24" d="M65.5 111c-25.27 0-47.76-9.89-62.11-25.26A65 65 0 0 0 126 87.37C111.64 101.81 89.86 111 65.5 111z"/><rect width="20.12" height="20.12" x="38.99" y="73.97" fill="#c1272d" rx="8.5" ry="8.5"/><rect width="21.31" height="21.31" x="72.13" y="72.79" fill="#c1272d" rx="9" ry="9"/><rect width="11.84" height="46.16" x="47.27" y="40.83" fill="#c1272d" rx="5" ry="5"/><rect width="11.84" height="46.16" x="64.44" y="23.67" fill="#c1272d" rx="5" ry="5" transform="rotate(90 70.355 46.745)"/><rect width="11.84" height="44.98" x="81.6" y="40.83" fill="#c1272d" rx="5" ry="5"/><rect width="20.12" height="20.12" x="35.44" y="70.42" fill="#fff" rx="10.06" ry="10.06"/><rect width="21.31" height="21.31" x="68.58" y="69.24" fill="#fff" rx="10.65" ry="10.65"/><rect width="11.84" height="46.16" x="43.72" y="37.28" fill="#fff" rx="5" ry="5"/><rect width="11.84" height="46.16" x="60.89" y="20.12" fill="#fff" rx="5" ry="5" transform="rotate(90 66.805 43.195)"/><rect width="11.84" height="44.98" x="78.05" y="37.28" fill="#fff" rx="5" ry="5"/><circle cx="83.86" cy="43.4" r="2.77" transform="rotate(-61.03 83.845 43.394)" style="mix-blend-mode:soft-light" fill="#fff"/><circle cx="79.83" cy="45.91" r="1.38" transform="rotate(-61.03 79.827 45.907)" style="mix-blend-mode:soft-light" fill="#fff"/></g></g></svg>