<svg xmlns="http://www.w3.org/2000/svg" viewBox="0 0 130 137"><g data-name="Layer 2"><g data-name="Layer 1"><path fill="#f93052" d="M113.73 69.34a53.52 53.52 0 1 1-2.81-17.21 53.76 53.76 0 0 1 2.81 17.21z"/><path fill="#f15a24" d="M110.92 52.12l-68.17 68.17a53.43 53.43 0 01-17.32-9.76c.22-.27.44-.52.69-.77l73.32-73.31a9.82 9.82 0 011.89-1.45 53.82 53.82 0 019.59 17.12zM89.58 24.45c-.18.21-.36.41-.57.61L15.7 98.38c-.2.2-.4.38-.61.57a53.34 53.34 0 01-7.88-19.23l63.14-63.14a53.34 53.34 0 0119.23 7.87z"/><path fill="#ed1c24" d="M129.31 62.5a65 65 0 0 1-128.62 0A66.08 66.08 0 0 0 0 72a65 65 0 0 0 130 0 66.08 66.08 0 0 0-.69-9.5z"/><path fill="#f7931e" d="M65 20a45 45 0 1 1-45 45 45.05 45.05 0 0 1 45-45m0-20a65 65 0 1 0 65 65A65 65 0 0 0 65 0z"/><path fill="#f15a24" d="M65.5 111c-25.27 0-47.76-9.89-62.11-25.26A65 65 0 0 0 126 87.37C111.64 101.81 89.86 111 65.5 111z"/><rect width="18.77" height="18.77" x="41.29" y="74.9" fill="#c1272d" rx="8.5" ry="8.5"/><rect width="19.88" height="19.88" x="72.21" y="73.79" fill="#c1272d" rx="9" ry="9"/><rect width="11.04" height="43.06" x="49.02" y="43.98" fill="#c1272d" rx="5" ry="5"/><rect width="11.04" height="43.06" x="65.03" y="27.97" fill="#c1272d" rx="5" ry="5" transform="rotate(90 70.55 49.5)"/><rect width="11.04" height="41.96" x="81.04" y="43.98" fill="#c1272d" rx="5" ry="5"/><path fill="#fff" d="M83.77 40.67H50.71a5 5 0 0 0-1.94.39 5 5 0 0 0-3.06 4.61v26.07a9.38 9.38 0 0 0 1.66 18.61 9.31 9.31 0 0 0 9.29-10.66 5 5 0 0 0 .1-1v-27h21v18.86a9.94 9.94 0 0 0 1.1 19.81 10 10 0 0 0 9.94-9.94 9.85 9.85 0 0 0-.15-1.64 4.93 4.93 0 0 0 .15-1.15v-32a5 5 0 0 0-5.03-4.96z"/><circle cx="83.15" cy="46.37" r="2.58" transform="rotate(-61.03 83.14 46.374)" style="mix-blend-mode:soft-light" fill="#fff"/><circle cx="79.39" cy="48.72" r="1.29" transform="rotate(-61.03 79.381 48.719)" style="mix-blend-mode:soft-light" fill="#fff"/><rect width="75.66" height="7.3" x="28.17" y="64.86" fill="#c1272d" rx="3.65" ry="3.65" transform="rotate(45 65.999 68.518)"/><rect width="75.66" height="7.3" x="26.17" y="64.86" fill="#fff" rx="3.65" ry="3.65" transform="rotate(45 64.002 68.51)"/></g></g></svg>