<svg xmlns="http://www.w3.org/2000/svg" viewBox="0 0 130 137"><g data-name="Layer 2"><g data-name="Layer 1"><path fill="#f93052" d="M117.44 68.6a53.52 53.52 0 1 1-2.81-17.21 53.76 53.76 0 0 1 2.81 17.21z"/><path fill="#f15a24" d="M114.62 51.38l-68.16 68.17a53.43 53.43 0 01-17.32-9.76c.22-.27.44-.52.69-.77l73.32-73.32a9.82 9.82 0 011.85-1.45 53.82 53.82 0 019.62 17.13zM93.28 23.71c-.18.21-.36.41-.57.61L19.4 97.64c-.2.2-.4.38-.61.57A53.34 53.34 0 0110.91 79L74 15.84a53.34 53.34 0 0119.28 7.87z"/><path fill="#ed1c24" d="M129.31 62.5a65 65 0 0 1-128.62 0A66.08 66.08 0 0 0 0 72a65 65 0 0 0 130 0 66.08 66.08 0 0 0-.69-9.5z"/><path fill="#f7931e" d="M65 20a45 45 0 1 1-45 45 45.05 45.05 0 0 1 45-45m0-20a65 65 0 1 0 65 65A65 65 0 0 0 65 0z"/><path fill="#f15a24" d="M65.5 111c-25.27 0-47.76-9.89-62.11-25.26A65 65 0 0 0 126 87.37C111.64 101.81 89.86 111 65.5 111z"/><rect width="9.77" height="29.77" x="30.48" y="52.35" fill="#c1272d" rx="4.89" ry="4.89"/><rect width="9.77" height="29.77" x="29.5" y="50.06" fill="#fff" rx="4.89" ry="4.89"/><rect width="19.55" height="10.31" x="77.39" y="45.48" fill="#c1272d" rx="4.5" ry="4.5"/><rect width="19.55" height="10.31" x="77.39" y="62.08" fill="#c1272d" rx="4.5" ry="4.5"/><rect width="19.55" height="10.31" x="77.39" y="78.68" fill="#c1272d" rx="4.5" ry="4.5"/><rect width="19.55" height="10.31" x="75.44" y="43.19" fill="#fff" rx="4.5" ry="4.5"/><rect width="19.55" height="10.31" x="75.44" y="59.79" fill="#fff" rx="4.5" ry="4.5"/><rect width="19.55" height="10.31" x="75.44" y="76.39" fill="#fff" rx="4.5" ry="4.5"/><path fill="#c1272d" d="M66.48 43.75l-19.21 9.48A5.83 5.83 0 0 0 44 58.46v16.12a5.83 5.83 0 0 0 3.25 5.23l19.21 9.47a5.83 5.83 0 0 0 8.41-5.23V49a5.83 5.83 0 0 0-8.39-5.25z"/><path fill="#fff" d="M64.61 41.46L45.4 50.94a5.83 5.83 0 0 0-3.25 5.23v16.12a5.83 5.83 0 0 0 3.25 5.23L64.61 87A5.83 5.83 0 0 0 73 81.77V46.69a5.83 5.83 0 0 0-8.39-5.23z"/><ellipse cx="51.37" cy="71.86" rx="4.83" ry="5.18" style="mix-blend-mode:soft-light" fill="#fff"/><ellipse cx="57.01" cy="64.18" rx="2.41" ry="2.49" style="mix-blend-mode:soft-light" fill="#fff"/></g></g></svg>